<svg width="15" height="14" viewBox="0 0 15 14" fill="none" xmlns="http://www.w3.org/2000/svg">
  <path
    d="M5.7425 11.1728C5.64179 11.1694 5.54284 11.1455 5.4517 11.1025C5.36057 11.0595 5.27917 10.9984 5.2125 10.9228C5.07205 10.7822 4.99316 10.5916 4.99316 10.3928C4.99316 10.1941 5.07205 10.0034 5.2125 9.86281L8.2125 6.86281L5.2125 3.86281C5.15318 3.7188 5.14016 3.5599 5.17526 3.40815C5.21035 3.2564 5.29182 3.11935 5.40835 3.01601C5.52489 2.91267 5.6707 2.84817 5.82555 2.83147C5.98041 2.81477 6.13662 2.8467 6.2725 2.92282L9.7725 6.42282C9.91295 6.56344 9.99184 6.75406 9.99184 6.95282C9.99184 7.15157 9.91295 7.34219 9.7725 7.48282L6.2725 10.9228C6.20584 10.9984 6.12444 11.0595 6.03331 11.1025C5.94217 11.1455 5.84321 11.1694 5.7425 11.1728Z"
    fill="#6B7280" />
</svg>