<svg width="15" height="14" viewBox="0 0 15 14" fill="none" xmlns="http://www.w3.org/2000/svg">
  <path fill-rule="evenodd" clip-rule="evenodd"
    d="M6.17989 11.164C6.27168 11.2021 6.37016 11.2215 6.46955 11.221C6.66603 11.2301 6.85814 11.1612 7.00412 11.0294C7.14578 10.8875 7.22535 10.6953 7.22535 10.4948C7.22535 10.2943 7.14578 10.1021 7.00412 9.96023L3.97828 6.93439L7.00412 3.90855C7.08787 3.76125 7.11974 3.59011 7.09462 3.42254C7.06951 3.25497 6.98886 3.10069 6.86562 2.98442C6.74237 2.86814 6.58365 2.79662 6.41491 2.7813C6.24616 2.76598 6.07716 2.80776 5.93499 2.89993L2.4351 6.39983C2.29344 6.54166 2.21387 6.73393 2.21387 6.93439C2.21387 7.13485 2.29344 7.32712 2.4351 7.46896L5.93499 10.9991C6.00483 11.0698 6.08809 11.1259 6.17989 11.164ZM11.5127 10.9688C11.6413 11.1156 11.8224 11.2061 12.017 11.221C12.2116 11.2061 12.3926 11.1156 12.5213 10.9688C12.6453 10.8302 12.7139 10.6506 12.7139 10.4645C12.7139 10.2785 12.6453 10.0989 12.5213 9.96023L9.49544 6.93439L12.5213 3.90855C12.5887 3.76739 12.6107 3.6088 12.5842 3.45462C12.5578 3.30044 12.4842 3.15826 12.3736 3.04764C12.263 2.93703 12.1208 2.86343 11.9666 2.83697C11.8124 2.81052 11.6538 2.83252 11.5127 2.89993L7.98252 6.36957C7.84086 6.5114 7.76129 6.70367 7.76129 6.90413C7.76129 7.1046 7.84086 7.29686 7.98252 7.4387L11.5127 10.9688Z"
    fill="#6B7280" />
</svg>