<svg width="15" height="14" viewBox="0 0 15 14" fill="none" xmlns="http://www.w3.org/2000/svg">
  <path fill-rule="evenodd" clip-rule="evenodd"
    d="M8.18366 11.1451C8.27519 11.1831 8.37339 11.2024 8.4725 11.2019C8.57378 11.1985 8.6733 11.1745 8.76496 11.1312C8.85662 11.088 8.93848 11.0265 9.00552 10.9505L12.5255 7.49083C12.6668 7.34941 12.7461 7.15769 12.7461 6.95781C12.7461 6.75792 12.6668 6.56621 12.5255 6.42478L9.00552 2.90477C8.86624 2.82157 8.70383 2.78549 8.54242 2.8019C8.38101 2.81831 8.22919 2.88633 8.10949 2.99586C7.9898 3.10539 7.90861 3.2506 7.87798 3.40993C7.84735 3.56925 7.86892 3.73421 7.93947 3.88032L10.9566 6.89746L7.93947 9.91461C7.79821 10.056 7.71887 10.2478 7.71887 10.4476C7.71887 10.6475 7.79821 10.8392 7.93947 10.9807C8.00911 11.0512 8.09213 11.1071 8.18366 11.1451ZM2.43817 10.9505C2.56647 11.0968 2.74698 11.1871 2.94103 11.2019C3.13507 11.1871 3.31559 11.0968 3.44388 10.9505L6.96389 7.49083C7.10514 7.3494 7.18448 7.15769 7.18448 6.9578C7.18448 6.75792 7.10514 6.5662 6.96389 6.42478L3.44388 2.90477C3.30313 2.83755 3.145 2.81562 2.99126 2.84199C2.83753 2.86837 2.69575 2.94176 2.58545 3.05206C2.47516 3.16235 2.40177 3.30413 2.37539 3.45787C2.34901 3.6116 2.37095 3.76973 2.43817 3.91049L5.45531 6.92763L2.43817 9.94478C2.31448 10.0831 2.24609 10.2621 2.24609 10.4476C2.24609 10.6332 2.31448 10.8122 2.43817 10.9505Z"
    fill="#6B7280" />
</svg>