<svg width="15" height="14" viewBox="0 0 15 14" fill="none" xmlns="http://www.w3.org/2000/svg">
  <path
    d="M9.21809 11.185C9.11955 11.1854 9.02191 11.1662 8.9309 11.1284C8.83988 11.0907 8.75733 11.0351 8.68809 10.965L5.18809 7.46497C5.04764 7.32434 4.96875 7.13372 4.96875 6.93497C4.96875 6.73622 5.04764 6.54559 5.18809 6.40497L8.68809 2.93497C8.82905 2.84358 8.99661 2.80215 9.16391 2.81734C9.33121 2.83253 9.48857 2.90345 9.61077 3.01873C9.73297 3.13401 9.81292 3.28697 9.83782 3.45311C9.86272 3.61924 9.83112 3.78893 9.74809 3.93497L6.74809 6.93497L9.74809 9.93497C9.88854 10.0756 9.96743 10.2662 9.96743 10.465C9.96743 10.6637 9.88854 10.8543 9.74809 10.995C9.60336 11.1257 9.41289 11.1939 9.21809 11.185Z"
    fill="#6B7280" />
</svg>