<svg width="8" height="12" viewBox="0 0 8 12" fill="none" xmlns="http://www.w3.org/2000/svg">
  <path
    d="M1.38671 12C1.28372 12.0005 1.18166 11.9804 1.08654 11.9409C0.991417 11.9014 0.905138 11.8433 0.832765 11.7701C0.68597 11.6231 0.603516 11.4238 0.603516 11.2161C0.603516 11.0084 0.68597 10.8091 0.832765 10.6622L5.50471 5.99022L0.832765 1.31827C0.6943 1.16968 0.618918 0.973134 0.622501 0.770055C0.626084 0.566976 0.708353 0.373215 0.851974 0.229594C0.995595 0.085973 1.18936 0.00370522 1.39243 0.000122126C1.59551 -0.00346097 1.79205 0.0719203 1.94065 0.210385L7.16654 5.43628C7.31334 5.58325 7.39579 5.78249 7.39579 5.99022C7.39579 6.19795 7.31334 6.39718 7.16654 6.54416L1.94065 11.7701C1.86828 11.8433 1.782 11.9014 1.68688 11.9409C1.59175 11.9804 1.4897 12.0005 1.38671 12Z"
    fill="#4B5563" />
</svg>