<svg xmlns="http://www.w3.org/2000/svg" width="81" height="105" viewBox="0 0 81 105" fill="none">
  <path fill-rule="evenodd" clip-rule="evenodd" d="M0.5 0C36.8486 0 47.6744 26.25 47.6744 52.5C47.6744 78.75 34.8839 105 0.5 105C0.5 89.871 0.5 15.0065 0.5 0Z" fill="#A01A7D"/>
  <path fill-rule="evenodd" clip-rule="evenodd" d="M0.5 0C36.8486 0 47.6744 26.25 47.6744 52.5C47.6744 78.75 34.8839 105 0.5 105C0.5 89.871 0.5 15.0065 0.5 0Z" fill="url(#paint0_linear_74_8516)"/>
  <path fill-rule="evenodd" clip-rule="evenodd" d="M50.4345 0C34.171 32.7066 20.0705 62.4762 0.5 104.63C80.5 111.491 106.746 20.9765 50.4345 0Z" fill="url(#paint1_linear_74_8516)"/>
  <defs>
  <linearGradient id="paint0_linear_74_8516" x1="0.5" y1="0" x2="0.5" y2="105" gradientUnits="userSpaceOnUse">
  <stop stop-color="#A01A7D"/>
  <stop offset="1" stop-color="#0D3D39"/>
  </linearGradient>
  <linearGradient id="paint1_linear_74_8516" x1="14.2272" y1="-35.2585" x2="-61.3497" y2="50.4819" gradientUnits="userSpaceOnUse">
  <stop stop-color="#ED093E"/>
  <stop offset="0.995629" stop-color="#F896AD"/>
  </linearGradient>
  </defs>
  </svg>
