<svg xmlns="http://www.w3.org/2000/svg" width="209" height="37" viewBox="0 0 209 37" fill="none">
  <path fill-rule="evenodd" clip-rule="evenodd" d="M46.591 27.1979C47.5612 27.264 48.3992 27.2971 49.1048 27.2971C51.0893 27.2971 52.914 26.8506 54.5789 25.9575C56.2437 25.0645 57.5667 23.7966 58.548 22.1538C59.5293 20.511 60.0199 18.6202 60.0199 16.4812C60.0199 14.5849 59.5458 12.876 58.5976 11.3545C57.6494 9.83295 56.3099 8.63119 54.5789 7.74916C52.8479 6.86713 50.8688 6.42612 48.6417 6.42612C48.2448 6.42612 47.473 6.44817 46.3264 6.49227C45.3782 6.55842 44.4521 6.5915 43.548 6.5915C42.9526 6.5915 42.1478 6.56945 41.1334 6.52535L39.3804 6.49227C39.3143 6.49227 39.2812 6.55842 39.2812 6.69073C39.2812 6.82303 39.3143 6.88918 39.3804 6.88918C40.064 6.88918 40.5656 6.94982 40.8854 7.0711C41.2051 7.19238 41.4256 7.40737 41.5469 7.71608C41.6682 8.02479 41.7288 8.50991 41.7288 9.17143V24.4857C41.7288 25.1472 41.6682 25.6378 41.5469 25.9575C41.4256 26.2773 41.1996 26.4923 40.8688 26.6025C40.5381 26.7128 40.0199 26.7679 39.3143 26.7679C39.2702 26.7679 39.2481 26.8341 39.2481 26.9664C39.2481 27.0987 39.2702 27.1648 39.3143 27.1648C40.064 27.1648 40.6594 27.1538 41.1004 27.1317L43.548 27.0987C44.1875 27.0987 44.7663 27.1097 45.2845 27.1317C45.8027 27.1538 46.2382 27.1758 46.591 27.1979ZM52.5116 25.4614C51.4311 26.178 50.1853 26.5364 48.774 26.5364C47.451 26.5364 46.5579 26.3545 46.0949 25.9906C45.6318 25.6268 45.4003 25.0038 45.4003 24.1218V9.23758C45.4003 8.37761 45.6538 7.81531 46.161 7.5507C46.6682 7.28609 47.6053 7.15379 48.9725 7.15379C50.3617 7.15379 51.5855 7.59481 52.6439 8.47683C53.7024 9.35886 54.5182 10.5661 55.0915 12.0987C55.6649 13.6312 55.9515 15.3346 55.9515 17.2089C55.9515 19.1714 55.6483 20.8583 55.0419 22.2696C54.4355 23.6808 53.5921 24.7447 52.5116 25.4614Z" fill="white"/>
  <path d="M71.5304 14.0667C72.0375 14.0667 72.5282 14.2486 73.0023 14.6124C73.4763 14.9763 73.7134 15.4118 73.7134 15.9189C73.7134 16.382 73.5701 16.7624 73.2834 17.0601C72.9967 17.3578 72.6219 17.5066 72.1588 17.5066C71.8281 17.5066 71.5579 17.4404 71.3484 17.3081C71.139 17.1758 70.924 16.9774 70.7035 16.7128C70.505 16.4923 70.3341 16.3324 70.1908 16.2332C70.0475 16.1339 69.8766 16.0843 69.6781 16.0843C69.4576 16.0843 69.2206 16.167 68.967 16.3324C68.7134 16.4978 68.322 16.8451 67.7928 17.3743V24.4856C67.7928 25.3677 68.0023 25.9686 68.4212 26.2883C68.8402 26.608 69.612 26.7679 70.7365 26.7679C70.8247 26.7679 70.8688 26.834 70.8688 26.9664C70.8688 27.0987 70.8247 27.1648 70.7365 27.1648C69.9648 27.1648 69.3584 27.1538 68.9174 27.1317L66.2382 27.0987L64.2867 27.1317C63.9559 27.1538 63.5039 27.1648 62.9306 27.1648C62.8644 27.1648 62.8314 27.0987 62.8314 26.9664C62.8314 26.834 62.8644 26.7679 62.9306 26.7679C63.6142 26.7679 64.0772 26.608 64.3198 26.2883C64.5623 25.9686 64.6836 25.3677 64.6836 24.4856V18.2673C64.6836 17.5838 64.6009 17.0821 64.4355 16.7624C64.2702 16.4426 64.0111 16.2828 63.6583 16.2828C63.2834 16.2828 62.7542 16.4371 62.0706 16.7458H62.0045C61.9383 16.7458 61.8887 16.6907 61.8556 16.5805C61.8225 16.4702 61.8281 16.4041 61.8722 16.382L66.4697 14.1328C66.602 14.0887 66.6792 14.0667 66.7013 14.0667C66.9438 14.0667 67.1698 14.2927 67.3793 14.7447C67.5888 15.1968 67.7156 15.8087 67.7597 16.5805C68.6638 15.6543 69.408 15.0038 69.9923 14.629C70.5767 14.2541 71.0894 14.0667 71.5304 14.0667Z" fill="white"/>
  <path fill-rule="evenodd" clip-rule="evenodd" d="M86.7619 25.1141C86.7067 25.0259 86.6571 24.9818 86.613 24.9818L86.5469 25.0149C86.0618 25.3236 85.5215 25.5551 84.9262 25.7095C84.3308 25.8638 83.7575 25.941 83.2062 25.941C81.6406 25.941 80.4113 25.3897 79.5182 24.2872C78.6252 23.1847 78.1786 21.6852 78.1786 19.7888C78.1786 19.2817 78.2117 18.8186 78.2779 18.3997L84.2316 18.3335H86.2492C86.4918 18.3335 86.613 18.0138 86.613 17.3743C86.613 16.36 86.2492 15.5606 85.5215 14.9763C84.7938 14.3919 83.7464 14.0998 82.3793 14.0998C80.9681 14.0998 79.6891 14.414 78.5425 15.0424C77.3958 15.6709 76.4918 16.5309 75.8302 17.6224C75.1687 18.7139 74.838 19.8991 74.838 21.178C74.838 22.3026 75.1026 23.3556 75.6318 24.3368C76.161 25.3181 76.9328 26.1009 77.9471 26.6852C78.9614 27.2696 80.1632 27.5617 81.5524 27.5617C82.5447 27.5617 83.4598 27.3853 84.2977 27.0325C85.1356 26.6797 85.9625 26.1064 86.7784 25.3126C86.8225 25.2684 86.817 25.2023 86.7619 25.1141ZM79.4355 15.5551C79.9206 15.0259 80.494 14.7613 81.1555 14.7613C82.3683 14.7613 83.0077 15.7205 83.0739 17.6389L78.3771 17.7381C78.5976 16.812 78.9504 16.0843 79.4355 15.5551Z" fill="white"/>
  <path d="M91.5083 15.9851C91.5083 16.6246 91.7343 17.1758 92.1863 17.6389C92.6384 18.102 93.2944 18.5871 94.1544 19.0942C94.9923 19.5794 95.6152 19.9597 96.0232 20.2354C96.4311 20.511 96.8005 20.8969 97.1312 21.393C97.462 21.8892 97.6274 22.4901 97.6274 23.1957C97.6274 23.9454 97.4399 24.651 97.0651 25.3125C96.6902 25.9741 96.1279 26.5088 95.3782 26.9167C94.6285 27.3247 93.7354 27.5286 92.699 27.5286C91.4862 27.5286 90.3396 27.231 89.2591 26.6356C89.1268 26.5033 89.0607 26.371 89.0607 26.2387L88.9945 22.9641C88.9945 22.898 89.0551 22.8594 89.1764 22.8484C89.2977 22.8374 89.3694 22.8539 89.3914 22.898C89.7442 24.0005 90.3286 24.9377 91.1445 25.7095C91.9603 26.4812 92.7872 26.8671 93.6252 26.8671C94.0882 26.8671 94.4576 26.7238 94.7332 26.4371C95.0088 26.1505 95.1467 25.7315 95.1467 25.1802C95.1467 24.3644 94.9151 23.7194 94.4521 23.2453C93.989 22.7712 93.3054 22.2806 92.4013 21.7734C91.6296 21.3544 91.0452 21.0127 90.6483 20.748C90.2514 20.4834 89.8986 20.1086 89.5899 19.6235C89.2812 19.1383 89.1268 18.543 89.1268 17.8374C89.1268 16.5364 89.5899 15.5827 90.516 14.9763C91.4421 14.3699 92.5777 14.0667 93.9228 14.0667C94.43 14.0667 94.8876 14.0998 95.2955 14.1659C95.7034 14.2321 96.161 14.3644 96.6682 14.5628C96.8666 14.629 96.9658 14.7503 96.9658 14.9267C96.9658 15.4779 96.9548 15.9079 96.9328 16.2166L96.8997 17.8704C96.8997 17.9366 96.8335 17.9697 96.7012 17.9697C96.5689 17.9697 96.5028 17.9366 96.5028 17.8704C96.5028 17.4515 96.3264 16.9939 95.9736 16.4978C95.6207 16.0016 95.1632 15.5772 94.6009 15.2243C94.0386 14.8715 93.4598 14.6951 92.8644 14.6951C91.9603 14.6951 91.5083 15.1251 91.5083 15.9851Z" fill="white"/>
  <path d="M102.456 15.9851C102.456 16.6246 102.682 17.1758 103.135 17.6389C103.587 18.102 104.243 18.5871 105.103 19.0942C105.94 19.5794 106.563 19.9597 106.971 20.2354C107.379 20.511 107.749 20.8969 108.079 21.393C108.41 21.8892 108.576 22.4901 108.576 23.1957C108.576 23.9454 108.388 24.651 108.013 25.3125C107.638 25.9741 107.076 26.5088 106.326 26.9167C105.577 27.3247 104.684 27.5286 103.647 27.5286C102.434 27.5286 101.288 27.231 100.207 26.6356C100.075 26.5033 100.009 26.371 100.009 26.2387L99.9427 22.9641C99.9427 22.898 100.003 22.8594 100.125 22.8484C100.246 22.8374 100.318 22.8539 100.34 22.898C100.692 24.0005 101.277 24.9377 102.093 25.7095C102.909 26.4812 103.735 26.8671 104.573 26.8671C105.036 26.8671 105.406 26.7238 105.681 26.4371C105.957 26.1505 106.095 25.7315 106.095 25.1802C106.095 24.3644 105.863 23.7194 105.4 23.2453C104.937 22.7712 104.254 22.2806 103.35 21.7734C102.578 21.3544 101.993 21.0127 101.596 20.748C101.2 20.4834 100.847 20.1086 100.538 19.6235C100.229 19.1383 100.075 18.543 100.075 17.8374C100.075 16.5364 100.538 15.5827 101.464 14.9763C102.39 14.3699 103.526 14.0667 104.871 14.0667C105.378 14.0667 105.836 14.0998 106.244 14.1659C106.652 14.2321 107.109 14.3644 107.616 14.5628C107.815 14.629 107.914 14.7503 107.914 14.9267C107.914 15.4779 107.903 15.9079 107.881 16.2166L107.848 17.8704C107.848 17.9366 107.782 17.9697 107.649 17.9697C107.517 17.9697 107.451 17.9366 107.451 17.8704C107.451 17.4515 107.275 16.9939 106.922 16.4978C106.569 16.0016 106.111 15.5772 105.549 15.2243C104.987 14.8715 104.408 14.6951 103.813 14.6951C102.909 14.6951 102.456 15.1251 102.456 15.9851Z" fill="white"/>
  <path d="M137.253 26.7679C137.297 26.7679 137.319 26.8341 137.319 26.9664C137.319 27.0987 137.297 27.1648 137.253 27.1648C136.503 27.1648 135.907 27.1538 135.466 27.1318L133.019 27.0987L130.538 27.1318C130.119 27.1538 129.546 27.1648 128.818 27.1648C128.752 27.1648 128.719 27.0987 128.719 26.9664C128.719 26.8341 128.752 26.7679 128.818 26.7679C129.744 26.7679 130.373 26.6577 130.703 26.4372C131.034 26.2166 131.2 25.7536 131.2 25.048L131.167 24.4857L130.472 10.9575L123.658 26.9333C123.614 27.0215 123.526 27.0656 123.394 27.0656C123.261 27.0656 123.173 27.0215 123.129 26.9333L114.761 11.0237L114.496 22.9642C114.474 24.1549 114.711 25.0865 115.207 25.7591C115.703 26.4316 116.404 26.7679 117.308 26.7679C117.374 26.7679 117.407 26.8341 117.407 26.9664C117.407 27.0987 117.374 27.1648 117.308 27.1648C116.712 27.1648 116.249 27.1538 115.918 27.1318L114.099 27.0987L112.015 27.1318C111.663 27.1538 111.189 27.1648 110.593 27.1648C110.527 27.1648 110.494 27.0987 110.494 26.9664C110.494 26.8341 110.527 26.7679 110.593 26.7679C111.497 26.7679 112.214 26.4261 112.743 25.7426C113.272 25.059 113.548 24.1329 113.57 22.9642L113.868 9.27067L113.835 9.23759C113.394 8.42172 112.936 7.82635 112.462 7.45149C111.988 7.07662 111.442 6.88919 110.825 6.88919C110.759 6.88919 110.725 6.82304 110.725 6.69074C110.725 6.55843 110.759 6.49228 110.825 6.49228L112.379 6.52536C112.688 6.54741 113.085 6.55843 113.57 6.55843L115.323 6.52536C115.522 6.5033 115.775 6.49228 116.084 6.49228C116.37 6.49228 116.591 6.59151 116.745 6.78996C116.9 6.98842 117.186 7.46251 117.605 8.21223L124.816 21.7403L131.1 7.31918C131.233 7.01047 131.37 6.79548 131.514 6.6742C131.657 6.55292 131.85 6.49228 132.093 6.49228C132.291 6.49228 132.517 6.5033 132.771 6.52536C133.024 6.54741 133.316 6.55843 133.647 6.55843L135.599 6.52536C135.907 6.5033 136.348 6.49228 136.922 6.49228C136.988 6.49228 137.021 6.55843 137.021 6.69074C137.021 6.82304 136.988 6.88919 136.922 6.88919C135.885 6.88919 135.136 7.09867 134.673 7.51764C134.21 7.9366 134 8.5871 134.044 9.46913L134.838 24.4857C134.882 25.1692 134.965 25.6654 135.086 25.9741C135.207 26.2828 135.428 26.4923 135.748 26.6025C136.067 26.7128 136.569 26.7679 137.253 26.7679Z" fill="white"/>
  <path fill-rule="evenodd" clip-rule="evenodd" d="M151.029 25.1141C150.974 25.0259 150.924 24.9818 150.88 24.9818L150.814 25.0149C150.329 25.3236 149.788 25.5551 149.193 25.7095C148.598 25.8638 148.024 25.941 147.473 25.941C145.907 25.941 144.678 25.3897 143.785 24.2872C142.892 23.1847 142.445 21.6852 142.445 19.7888C142.445 19.2817 142.479 18.8186 142.545 18.3997L148.498 18.3335H150.516C150.759 18.3335 150.88 18.0138 150.88 17.3743C150.88 16.36 150.516 15.5606 149.788 14.9763C149.061 14.3919 148.013 14.0998 146.646 14.0998C145.235 14.0998 143.956 14.414 142.809 15.0424C141.663 15.6709 140.759 16.5309 140.097 17.6224C139.436 18.7139 139.105 19.8991 139.105 21.178C139.105 22.3026 139.369 23.3556 139.899 24.3368C140.428 25.3181 141.2 26.1009 142.214 26.6852C143.228 27.2696 144.43 27.5617 145.819 27.5617C146.812 27.5617 147.727 27.3853 148.565 27.0325C149.402 26.6797 150.229 26.1064 151.045 25.3126C151.089 25.2684 151.084 25.2023 151.029 25.1141ZM143.702 15.5551C144.187 15.0259 144.761 14.7613 145.422 14.7613C146.635 14.7613 147.275 15.7205 147.341 17.6389L142.644 17.7381C142.864 16.812 143.217 16.0843 143.702 15.5551Z" fill="white"/>
  <path fill-rule="evenodd" clip-rule="evenodd" d="M175.753 26.9664C175.753 26.8341 175.698 26.7679 175.588 26.7679C175.036 26.7679 174.507 26.4702 174 25.8749C173.493 25.2795 172.853 24.199 172.082 22.6334L163.813 6.35997C163.791 6.29382 163.691 6.26074 163.515 6.26074C163.361 6.26074 163.261 6.29382 163.217 6.35997L156.04 22.1373C155.466 23.4162 154.97 24.3809 154.551 25.0314C154.132 25.6819 153.713 26.1339 153.294 26.3875C152.875 26.6411 152.357 26.7679 151.74 26.7679C151.652 26.7679 151.608 26.8341 151.608 26.9664C151.608 27.0987 151.652 27.1648 151.74 27.1648C152.203 27.1648 152.809 27.1428 153.559 27.0987C154.397 27.0546 155.114 27.0325 155.709 27.0325C156.326 27.0325 157.054 27.0546 157.892 27.0987C158.642 27.1428 159.215 27.1648 159.612 27.1648C159.722 27.1648 159.777 27.0987 159.777 26.9664C159.777 26.8341 159.722 26.7679 159.612 26.7679C158.664 26.7679 157.909 26.5474 157.346 26.1064C156.784 25.6654 156.503 25.048 156.503 24.2541C156.503 23.7029 156.646 23.1075 156.933 22.468L159.281 17.2751H165.169L168.609 24.0557C169.05 24.9377 169.27 25.5661 169.27 25.941C169.27 26.2497 169.143 26.4647 168.89 26.586C168.636 26.7073 168.223 26.7679 167.649 26.7679C167.561 26.7679 167.517 26.8341 167.517 26.9664C167.517 27.0987 167.561 27.1648 167.649 27.1648C168.09 27.1648 168.686 27.1428 169.436 27.0987C170.229 27.0546 170.902 27.0325 171.453 27.0325C171.872 27.0325 172.567 27.0546 173.537 27.0987C174.463 27.1428 175.147 27.1648 175.588 27.1648C175.698 27.1648 175.753 27.0987 175.753 26.9664ZM164.706 16.3489H159.711L162.06 11.1229L164.706 16.3489Z" fill="white"/>
  <path fill-rule="evenodd" clip-rule="evenodd" d="M181.343 27.231C182.159 27.4735 183.107 27.5948 184.188 27.5948C185.378 27.5948 186.53 27.3467 187.644 26.8506C188.758 26.3545 189.678 25.5386 190.406 24.403C191.133 23.2674 191.497 21.8175 191.497 20.0535C191.497 18.8186 191.255 17.7381 190.77 16.812C190.285 15.8859 189.64 15.1803 188.835 14.6951C188.03 14.21 187.164 13.9675 186.238 13.9675C184.54 13.9675 182.887 14.6951 181.277 16.1505C181.211 15.511 181.084 15.0039 180.896 14.629C180.709 14.2541 180.505 14.0667 180.285 14.0667C180.218 14.0667 180.163 14.0777 180.119 14.0998L175.422 16.382C175.378 16.4041 175.384 16.4702 175.439 16.5805C175.494 16.6907 175.555 16.7459 175.621 16.7459H175.687C176.348 16.4371 176.856 16.2828 177.208 16.2828C177.605 16.2828 177.881 16.4371 178.035 16.7459C178.19 17.0546 178.267 17.5617 178.267 18.2674V33.5816C178.267 34.2431 178.217 34.7282 178.118 35.0369C178.019 35.3456 177.842 35.5606 177.589 35.6819C177.335 35.8032 176.944 35.8638 176.415 35.8638C176.348 35.8638 176.315 35.93 176.315 36.0623C176.315 36.1946 176.348 36.2607 176.415 36.2607C177.01 36.2607 177.473 36.2497 177.804 36.2277L179.755 36.1946L182.368 36.2277C182.831 36.2497 183.471 36.2607 184.287 36.2607C184.353 36.2607 184.386 36.1946 184.386 36.0623C184.386 35.93 184.353 35.8638 184.287 35.8638C183.427 35.8638 182.793 35.8032 182.385 35.6819C181.977 35.5606 181.701 35.3456 181.558 35.0369C181.415 34.7282 181.343 34.2431 181.343 33.5816V27.231ZM181.343 16.8782C182.159 16.1725 183.063 15.8197 184.055 15.8197C185.224 15.8197 186.2 16.2773 186.982 17.1924C187.765 18.1075 188.157 19.403 188.157 21.0788C188.157 24.8715 187.043 26.7679 184.816 26.7679C184.044 26.7679 183.394 26.6301 182.864 26.3545C182.335 26.0788 181.828 25.6654 181.343 25.1141V17.1428V16.8782Z" fill="white"/>
  <path fill-rule="evenodd" clip-rule="evenodd" d="M198.311 27.231C199.127 27.4735 200.075 27.5948 201.156 27.5948C202.346 27.5948 203.498 27.3467 204.612 26.8506C205.726 26.3545 206.646 25.5386 207.374 24.403C208.101 23.2674 208.465 21.8175 208.465 20.0535C208.465 18.8186 208.223 17.7381 207.738 16.812C207.253 15.8859 206.608 15.1803 205.803 14.6951C204.998 14.21 204.132 13.9675 203.206 13.9675C201.508 13.9675 199.855 14.6951 198.245 16.1505C198.179 15.511 198.052 15.0039 197.864 14.629C197.677 14.2541 197.473 14.0667 197.253 14.0667C197.186 14.0667 197.131 14.0777 197.087 14.0998L192.39 16.382C192.346 16.4041 192.352 16.4702 192.407 16.5805C192.462 16.6907 192.523 16.7459 192.589 16.7459H192.655C193.316 16.4371 193.824 16.2828 194.176 16.2828C194.573 16.2828 194.849 16.4371 195.003 16.7459C195.158 17.0546 195.235 17.5617 195.235 18.2674V33.5816C195.235 34.2431 195.185 34.7282 195.086 35.0369C194.987 35.3456 194.81 35.5606 194.557 35.6819C194.303 35.8032 193.912 35.8638 193.383 35.8638C193.316 35.8638 193.283 35.93 193.283 36.0623C193.283 36.1946 193.316 36.2607 193.383 36.2607C193.978 36.2607 194.441 36.2497 194.772 36.2277L196.723 36.1946L199.336 36.2277C199.799 36.2497 200.439 36.2607 201.255 36.2607C201.321 36.2607 201.354 36.1946 201.354 36.0623C201.354 35.93 201.321 35.8638 201.255 35.8638C200.395 35.8638 199.761 35.8032 199.353 35.6819C198.945 35.5606 198.669 35.3456 198.526 35.0369C198.383 34.7282 198.311 34.2431 198.311 33.5816V27.231ZM198.311 16.8782C199.127 16.1725 200.031 15.8197 201.023 15.8197C202.192 15.8197 203.168 16.2773 203.95 17.1924C204.733 18.1075 205.125 19.403 205.125 21.0788C205.125 24.8715 204.011 26.7679 201.784 26.7679C201.012 26.7679 200.362 26.6301 199.832 26.3545C199.303 26.0788 198.796 25.6654 198.311 25.1141V17.1428V16.8782Z" fill="white"/>
  <path fill-rule="evenodd" clip-rule="evenodd" d="M0 0C10.4502 0 13.5627 7.5 13.5627 15C13.5627 22.5 9.88538 30 0 30C0 25.6774 0 4.28758 0 0Z" fill="#A01A7D"/>
  <path fill-rule="evenodd" clip-rule="evenodd" d="M0 0C10.4502 0 13.5627 7.5 13.5627 15C13.5627 22.5 9.88538 30 0 30C0 25.6774 0 4.28758 0 0Z" fill="url(#paint0_linear_265_8584)"/>
  <path fill-rule="evenodd" clip-rule="evenodd" d="M14.3562 0C9.68041 9.34475 5.62652 17.8504 0 29.8942C23 31.8547 30.5456 5.99327 14.3562 0Z" fill="url(#paint1_linear_265_8584)"/>
  <defs>
    <linearGradient id="paint0_linear_265_8584" x1="0" y1="0" x2="0" y2="30" gradientUnits="userSpaceOnUse">
      <stop stop-color="#A01A7D"/>
      <stop offset="1" stop-color="#0D3D39"/>
    </linearGradient>
    <linearGradient id="paint1_linear_265_8584" x1="3.94656" y1="-10.0738" x2="-17.6295" y2="14.5568" gradientUnits="userSpaceOnUse">
      <stop stop-color="#ED093E"/>
      <stop offset="0.995629" stop-color="#F896AD"/>
    </linearGradient>
  </defs>
</svg>
