<svg width="203" height="35" viewBox="0 0 203 35" fill="none" xmlns="http://www.w3.org/2000/svg">
<g id="Group 2 Copy">
<g id="DressMeApp">
<path id="Shape" fill-rule="evenodd" clip-rule="evenodd" d="M45.5822 26.167C46.521 26.2306 47.3318 26.2624 48.0146 26.2624C49.9349 26.2624 51.7005 25.8328 53.3114 24.9736C54.9223 24.1144 56.2025 22.8946 57.152 21.3141C58.1015 19.7336 58.5762 17.9144 58.5762 15.8565C58.5762 14.0321 58.1175 12.3879 57.2 10.9241C56.2825 9.46025 54.9863 8.30404 53.3114 7.45545C51.6365 6.60685 49.7215 6.18256 47.5665 6.18256C47.1825 6.18256 46.4357 6.20377 45.3262 6.2462C44.4087 6.30985 43.5126 6.34167 42.6378 6.34167C42.0617 6.34167 41.2829 6.32045 40.3014 6.27802L38.6051 6.2462C38.5411 6.2462 38.5091 6.30985 38.5091 6.43713C38.5091 6.56442 38.5411 6.62807 38.6051 6.62807C39.2666 6.62807 39.752 6.68641 40.0614 6.80309C40.3707 6.91977 40.5841 7.12662 40.7015 7.42363C40.8188 7.72063 40.8775 8.18736 40.8775 8.82381V23.5575C40.8775 24.194 40.8188 24.666 40.7015 24.9736C40.5841 25.2812 40.3654 25.4881 40.0454 25.5942C39.7253 25.7002 39.2239 25.7533 38.5411 25.7533C38.4984 25.7533 38.4771 25.8169 38.4771 25.9442C38.4771 26.0715 38.4984 26.1351 38.5411 26.1351C39.2666 26.1351 39.8427 26.1245 40.2694 26.1033L42.6378 26.0715C43.2565 26.0715 43.8166 26.0821 44.318 26.1033C44.8194 26.1245 45.2408 26.1458 45.5822 26.167ZM51.3111 24.4963C50.2656 25.1858 49.06 25.5305 47.6945 25.5305C46.4143 25.5305 45.5502 25.3555 45.1021 25.0054C44.654 24.6554 44.43 24.0561 44.43 23.2075V8.88745C44.43 8.06007 44.6754 7.51909 45.1661 7.26451C45.6568 7.00993 46.5637 6.88264 47.8865 6.88264C49.2307 6.88264 50.4149 7.30694 51.4391 8.15553C52.4632 9.00413 53.2527 10.1656 53.8074 11.6401C54.3622 13.1145 54.6396 14.7534 54.6396 16.5566C54.6396 18.4447 54.3462 20.0677 53.7594 21.4254C53.1727 22.7832 52.3565 23.8068 51.3111 24.4963Z" fill="black"/>
<path id="Path" d="M69.7139 13.5335C70.2046 13.5335 70.6794 13.7085 71.1381 14.0586C71.5969 14.4086 71.8262 14.8276 71.8262 15.3156C71.8262 15.7611 71.6875 16.127 71.4102 16.4134C71.1328 16.6998 70.7701 16.843 70.322 16.843C70.0019 16.843 69.7406 16.7794 69.5379 16.6521C69.3352 16.5248 69.1271 16.3339 68.9138 16.0793C68.7217 15.8671 68.5564 15.7133 68.4177 15.6179C68.279 15.5224 68.1137 15.4747 67.9216 15.4747C67.7083 15.4747 67.4789 15.5542 67.2335 15.7133C66.9881 15.8724 66.6094 16.2066 66.0973 16.7157V23.5575C66.0973 24.4061 66.3 24.9842 66.7054 25.2919C67.1108 25.5995 67.8576 25.7533 68.9458 25.7533C69.0311 25.7533 69.0738 25.8169 69.0738 25.9442C69.0738 26.0715 69.0311 26.1351 68.9458 26.1351C68.199 26.1351 67.6122 26.1245 67.1855 26.1033L64.5931 26.0715L62.7048 26.1033C62.3848 26.1245 61.9474 26.1351 61.3926 26.1351C61.3286 26.1351 61.2966 26.0715 61.2966 25.9442C61.2966 25.8169 61.3286 25.7533 61.3926 25.7533C62.054 25.7533 62.5021 25.5995 62.7368 25.2919C62.9715 24.9842 63.0889 24.4061 63.0889 23.5575V17.5749C63.0889 16.9173 63.0089 16.4346 62.8488 16.127C62.6888 15.8194 62.4381 15.6656 62.0967 15.6656C61.734 15.6656 61.2219 15.8141 60.5605 16.1111H60.4965C60.4325 16.1111 60.3845 16.0581 60.3525 15.952C60.3204 15.8459 60.3258 15.7823 60.3685 15.7611L64.8171 13.5972C64.9452 13.5547 65.0198 13.5335 65.0412 13.5335C65.2759 13.5335 65.4946 13.751 65.6973 14.1859C65.9 14.6208 66.0227 15.2095 66.0653 15.952C66.9401 15.061 67.6602 14.4351 68.2257 14.0745C68.7911 13.7138 69.2872 13.5335 69.7139 13.5335Z" fill="black"/>
<path id="Shape_2" fill-rule="evenodd" clip-rule="evenodd" d="M84.4521 24.1621C84.3988 24.0773 84.3508 24.0348 84.3081 24.0348L84.2441 24.0667C83.7747 24.3637 83.252 24.5864 82.6759 24.7349C82.0998 24.8834 81.545 24.9577 81.0116 24.9577C79.4967 24.9577 78.3072 24.4273 77.4431 23.3666C76.5789 22.3058 76.1469 20.8632 76.1469 19.0387C76.1469 18.5508 76.1789 18.1053 76.2429 17.7022L82.0038 17.6386H83.9561C84.1908 17.6386 84.3081 17.3309 84.3081 16.7157C84.3081 15.7398 83.9561 14.9708 83.252 14.4086C82.5479 13.8464 81.5344 13.5653 80.2115 13.5653C78.8459 13.5653 77.6084 13.8676 76.4989 14.4722C75.3894 15.0769 74.5146 15.9042 73.8745 16.9544C73.2344 18.0045 72.9144 19.1448 72.9144 20.3753C72.9144 21.4572 73.1704 22.4703 73.6825 23.4143C74.1946 24.3584 74.9413 25.1115 75.9228 25.6737C76.9043 26.2359 78.0672 26.517 79.4114 26.517C80.3715 26.517 81.257 26.3473 82.0678 26.0078C82.8786 25.6684 83.6787 25.1168 84.4681 24.3531C84.5108 24.3106 84.5055 24.247 84.4521 24.1621ZM77.3631 14.9655C77.8325 14.4563 78.3872 14.2018 79.0273 14.2018C80.2008 14.2018 80.8196 15.1246 80.8836 16.9703L76.3389 17.0658C76.5523 16.1747 76.8937 15.4746 77.3631 14.9655Z" fill="black"/>
<path id="Path_2" d="M89.0449 15.3792C89.0449 15.9944 89.2636 16.5248 89.701 16.9703C90.1384 17.4158 90.7731 17.8826 91.6053 18.3705C92.4161 18.8372 93.0188 19.2032 93.4135 19.4684C93.8083 19.7336 94.1657 20.1048 94.4857 20.5821C94.8058 21.0595 94.9658 21.6376 94.9658 22.3165C94.9658 23.0378 94.7844 23.7166 94.4217 24.3531C94.059 24.9895 93.5149 25.504 92.7894 25.8965C92.064 26.2889 91.1999 26.4852 90.197 26.4852C89.0235 26.4852 87.914 26.1988 86.8685 25.626C86.7405 25.4987 86.6765 25.3714 86.6765 25.2441L86.6125 22.0937C86.6125 22.0301 86.6712 21.9929 86.7885 21.9823C86.9059 21.9717 86.9752 21.9876 86.9965 22.0301C87.3379 23.0908 87.9034 23.9924 88.6928 24.735C89.4823 25.4775 90.2824 25.8487 91.0932 25.8487C91.5412 25.8487 91.8986 25.7108 92.1653 25.4351C92.4321 25.1593 92.5654 24.7562 92.5654 24.2258C92.5654 23.4409 92.3414 22.8203 91.8933 22.3642C91.4452 21.9081 90.7838 21.436 89.909 20.9481C89.1622 20.545 88.5968 20.2162 88.2127 19.9616C87.8287 19.707 87.4873 19.3464 87.1886 18.8797C86.8899 18.4129 86.7405 17.8401 86.7405 17.1613C86.7405 15.9096 87.1886 14.992 88.0847 14.4086C88.9809 13.8252 90.0797 13.5335 91.3812 13.5335C91.872 13.5335 92.3147 13.5653 92.7094 13.629C93.1042 13.6926 93.5469 13.8199 94.0376 14.0108C94.2297 14.0745 94.3257 14.1912 94.3257 14.3609C94.3257 14.8913 94.315 15.3049 94.2937 15.602L94.2617 17.1931C94.2617 17.2567 94.1977 17.2885 94.0696 17.2885C93.9416 17.2885 93.8776 17.2567 93.8776 17.1931C93.8776 16.79 93.7069 16.3498 93.3655 15.8724C93.0241 15.3951 92.5814 14.9867 92.0373 14.6473C91.4932 14.3079 90.9332 14.1381 90.3571 14.1381C89.4823 14.1381 89.0449 14.5518 89.0449 15.3792Z" fill="black"/>
<path id="Path_3" d="M99.6385 15.3792C99.6385 15.9944 99.8572 16.5248 100.295 16.9703C100.732 17.4158 101.367 17.8826 102.199 18.3705C103.01 18.8372 103.612 19.2032 104.007 19.4684C104.402 19.7336 104.759 20.1048 105.079 20.5821C105.399 21.0595 105.559 21.6376 105.559 22.3165C105.559 23.0378 105.378 23.7166 105.015 24.3531C104.653 24.9895 104.109 25.504 103.383 25.8965C102.658 26.2889 101.793 26.4852 100.791 26.4852C99.6172 26.4852 98.5076 26.1988 97.4622 25.626C97.3341 25.4987 97.2701 25.3714 97.2701 25.2441L97.2061 22.0937C97.2061 22.0301 97.2648 21.9929 97.3821 21.9823C97.4995 21.9717 97.5688 21.9876 97.5902 22.0301C97.9316 23.0908 98.497 23.9924 99.2864 24.735C100.076 25.4775 100.876 25.8487 101.687 25.8487C102.135 25.8487 102.492 25.7108 102.759 25.4351C103.026 25.1593 103.159 24.7562 103.159 24.2258C103.159 23.4409 102.935 22.8203 102.487 22.3642C102.039 21.9081 101.377 21.436 100.503 20.9481C99.7558 20.545 99.1904 20.2162 98.8064 19.9616C98.4223 19.707 98.0809 19.3464 97.7822 18.8797C97.4835 18.4129 97.3341 17.8401 97.3341 17.1613C97.3341 15.9096 97.7822 14.992 98.6783 14.4086C99.5745 13.8252 100.673 13.5335 101.975 13.5335C102.466 13.5335 102.908 13.5653 103.303 13.629C103.698 13.6926 104.141 13.8199 104.631 14.0108C104.823 14.0745 104.919 14.1912 104.919 14.3609C104.919 14.8913 104.909 15.3049 104.887 15.602L104.855 17.1931C104.855 17.2567 104.791 17.2885 104.663 17.2885C104.535 17.2885 104.471 17.2567 104.471 17.1931C104.471 16.79 104.301 16.3498 103.959 15.8724C103.618 15.3951 103.175 14.9867 102.631 14.6473C102.087 14.3079 101.527 14.1381 100.951 14.1381C100.076 14.1381 99.6385 14.5518 99.6385 15.3792Z" fill="black"/>
<path id="Path_4" d="M133.308 25.7533C133.35 25.7533 133.372 25.8169 133.372 25.9442C133.372 26.0715 133.35 26.1351 133.308 26.1351C132.582 26.1351 132.006 26.1245 131.579 26.1033L129.211 26.0715L126.811 26.1033C126.405 26.1245 125.851 26.1351 125.146 26.1351C125.082 26.1351 125.05 26.0715 125.05 25.9442C125.05 25.8169 125.082 25.7533 125.146 25.7533C126.043 25.7533 126.651 25.6472 126.971 25.435C127.291 25.2229 127.451 24.7774 127.451 24.0985L127.419 23.5575L126.747 10.5422L120.154 25.9124C120.111 25.9972 120.026 26.0397 119.898 26.0397C119.77 26.0397 119.684 25.9972 119.642 25.9124L111.544 10.6058L111.288 22.0937C111.267 23.2393 111.496 24.1356 111.976 24.7827C112.456 25.4297 113.134 25.7533 114.009 25.7533C114.073 25.7533 114.105 25.8169 114.105 25.9442C114.105 26.0715 114.073 26.1351 114.009 26.1351C113.433 26.1351 112.985 26.1245 112.664 26.1033L110.904 26.0715L108.888 26.1033C108.547 26.1245 108.088 26.1351 107.512 26.1351C107.448 26.1351 107.416 26.0715 107.416 25.9442C107.416 25.8169 107.448 25.7533 107.512 25.7533C108.386 25.7533 109.08 25.4244 109.592 24.7668C110.104 24.1091 110.371 23.2181 110.392 22.0937L110.68 8.91926L110.648 8.88744C110.221 8.10249 109.779 7.52969 109.32 7.16903C108.861 6.80838 108.333 6.62805 107.736 6.62805C107.672 6.62805 107.64 6.56441 107.64 6.43712C107.64 6.30983 107.672 6.24619 107.736 6.24619L109.24 6.27801C109.539 6.29922 109.923 6.30983 110.392 6.30983L112.088 6.27801C112.28 6.25679 112.526 6.24619 112.825 6.24619C113.102 6.24619 113.315 6.34165 113.465 6.53259C113.614 6.72352 113.891 7.17964 114.297 7.90095L121.274 20.9163L127.355 7.04174C127.483 6.74473 127.616 6.53789 127.755 6.42121C127.894 6.30453 128.08 6.24619 128.315 6.24619C128.507 6.24619 128.726 6.25679 128.971 6.27801C129.216 6.29922 129.499 6.30983 129.819 6.30983L131.707 6.27801C132.006 6.25679 132.433 6.24619 132.988 6.24619C133.052 6.24619 133.084 6.30983 133.084 6.43712C133.084 6.56441 133.052 6.62805 132.988 6.62805C131.985 6.62805 131.259 6.82959 130.811 7.23268C130.363 7.63576 130.161 8.2616 130.203 9.11019L130.971 23.5575C131.014 24.2152 131.094 24.6925 131.211 24.9895C131.329 25.2865 131.542 25.4881 131.851 25.5942C132.161 25.7002 132.646 25.7533 133.308 25.7533Z" fill="black"/>
<path id="Shape_3" fill-rule="evenodd" clip-rule="evenodd" d="M146.638 24.1621C146.584 24.0773 146.536 24.0348 146.494 24.0348L146.43 24.0667C145.96 24.3637 145.438 24.5864 144.861 24.7349C144.285 24.8834 143.731 24.9577 143.197 24.9577C141.682 24.9577 140.493 24.4273 139.629 23.3666C138.765 22.3058 138.332 20.8632 138.332 19.0387C138.332 18.5508 138.364 18.1053 138.428 17.7022L144.189 17.6386H146.142C146.376 17.6386 146.494 17.3309 146.494 16.7157C146.494 15.7398 146.142 14.9708 145.438 14.4086C144.733 13.8464 143.72 13.5653 142.397 13.5653C141.032 13.5653 139.794 13.8676 138.685 14.4722C137.575 15.0769 136.7 15.9042 136.06 16.9544C135.42 18.0045 135.1 19.1448 135.1 20.3753C135.1 21.4572 135.356 22.4703 135.868 23.4143C136.38 24.3584 137.127 25.1115 138.108 25.6737C139.09 26.2359 140.253 26.517 141.597 26.517C142.557 26.517 143.443 26.3473 144.253 26.0078C145.064 25.6684 145.864 25.1168 146.654 24.3531C146.696 24.3106 146.691 24.247 146.638 24.1621ZM139.549 14.9655C140.018 14.4563 140.573 14.2018 141.213 14.2018C142.386 14.2018 143.005 15.1246 143.069 16.9703L138.524 17.0658C138.738 16.1747 139.079 15.4746 139.549 14.9655Z" fill="black"/>
<path id="Shape_4" fill-rule="evenodd" clip-rule="evenodd" d="M170.561 25.9442C170.561 25.8169 170.508 25.7533 170.401 25.7533C169.868 25.7533 169.356 25.4669 168.865 24.8941C168.374 24.3213 167.756 23.2817 167.009 21.7755L159.008 6.1189C158.986 6.05526 158.89 6.02344 158.72 6.02344C158.57 6.02344 158.474 6.05526 158.432 6.1189L151.486 21.2981C150.932 22.5286 150.452 23.4568 150.046 24.0826C149.641 24.7084 149.235 25.1433 148.83 25.3873C148.425 25.6313 147.923 25.7533 147.326 25.7533C147.24 25.7533 147.198 25.8169 147.198 25.9442C147.198 26.0715 147.24 26.1351 147.326 26.1351C147.774 26.1351 148.361 26.1139 149.086 26.0715C149.897 26.0291 150.59 26.0078 151.166 26.0078C151.764 26.0078 152.468 26.0291 153.279 26.0715C154.004 26.1139 154.559 26.1351 154.943 26.1351C155.05 26.1351 155.103 26.0715 155.103 25.9442C155.103 25.8169 155.05 25.7533 154.943 25.7533C154.026 25.7533 153.295 25.5411 152.751 25.1168C152.207 24.6925 151.935 24.0985 151.935 23.3348C151.935 22.8044 152.073 22.2316 152.351 21.6164L154.623 16.6203H160.32L163.648 23.1438C164.075 23.9924 164.288 24.5971 164.288 24.9577C164.288 25.2547 164.166 25.4616 163.92 25.5782C163.675 25.6949 163.275 25.7533 162.72 25.7533C162.635 25.7533 162.592 25.8169 162.592 25.9442C162.592 26.0715 162.635 26.1351 162.72 26.1351C163.147 26.1351 163.723 26.1139 164.448 26.0715C165.217 26.0291 165.867 26.0078 166.401 26.0078C166.806 26.0078 167.478 26.0291 168.417 26.0715C169.313 26.1139 169.975 26.1351 170.401 26.1351C170.508 26.1351 170.561 26.0715 170.561 25.9442ZM159.872 15.7292H155.039L157.311 10.7013L159.872 15.7292Z" fill="black"/>
<path id="Shape_5" fill-rule="evenodd" clip-rule="evenodd" d="M175.97 26.1988C176.76 26.4321 177.677 26.5488 178.723 26.5488C179.875 26.5488 180.99 26.3101 182.067 25.8328C183.145 25.3555 184.035 24.5705 184.74 23.478C185.444 22.3854 185.796 20.9905 185.796 19.2933C185.796 18.1053 185.561 17.0658 185.092 16.1747C184.622 15.2837 183.998 14.6048 183.219 14.1381C182.441 13.6714 181.603 13.438 180.707 13.438C179.064 13.438 177.464 14.1381 175.906 15.5383C175.842 14.9231 175.72 14.4351 175.538 14.0745C175.357 13.7138 175.159 13.5335 174.946 13.5335C174.882 13.5335 174.829 13.5441 174.786 13.5653L170.241 15.761C170.199 15.7823 170.204 15.8459 170.257 15.952C170.311 16.0581 170.369 16.1111 170.433 16.1111H170.497C171.138 15.8141 171.628 15.6656 171.97 15.6656C172.354 15.6656 172.62 15.8141 172.77 16.1111C172.919 16.4081 172.994 16.896 172.994 17.5749V32.3087C172.994 32.9451 172.946 33.4118 172.85 33.7088C172.754 34.0058 172.583 34.2127 172.338 34.3294C172.092 34.446 171.714 34.5044 171.202 34.5044C171.138 34.5044 171.106 34.568 171.106 34.6953C171.106 34.8226 171.138 34.8863 171.202 34.8863C171.778 34.8863 172.226 34.8757 172.546 34.8544L174.434 34.8226L176.962 34.8544C177.41 34.8757 178.029 34.8863 178.819 34.8863C178.883 34.8863 178.915 34.8226 178.915 34.6953C178.915 34.568 178.883 34.5044 178.819 34.5044C177.987 34.5044 177.373 34.446 176.978 34.3294C176.584 34.2127 176.317 34.0058 176.178 33.7088C176.04 33.4118 175.97 32.9451 175.97 32.3087V26.1988ZM175.97 16.2384C176.76 15.5595 177.635 15.2201 178.595 15.2201C179.725 15.2201 180.67 15.6603 181.427 16.5407C182.185 17.4211 182.563 18.6675 182.563 20.2798C182.563 23.9288 181.486 25.7533 179.331 25.7533C178.584 25.7533 177.955 25.6207 177.442 25.3555C176.93 25.0903 176.44 24.6925 175.97 24.1621V16.493V16.2384Z" fill="black"/>
<path id="Shape_6" fill-rule="evenodd" clip-rule="evenodd" d="M192.389 26.1988C193.178 26.4321 194.096 26.5488 195.141 26.5488C196.293 26.5488 197.408 26.3101 198.486 25.8328C199.563 25.3555 200.454 24.5705 201.158 23.478C201.862 22.3854 202.214 20.9905 202.214 19.2933C202.214 18.1053 201.98 17.0658 201.51 16.1747C201.041 15.2837 200.417 14.6048 199.638 14.1381C198.859 13.6714 198.022 13.438 197.125 13.438C195.483 13.438 193.882 14.1381 192.325 15.5383C192.261 14.9231 192.138 14.4351 191.957 14.0745C191.775 13.7138 191.578 13.5335 191.365 13.5335C191.301 13.5335 191.247 13.5441 191.205 13.5653L186.66 15.761C186.617 15.7823 186.623 15.8459 186.676 15.952C186.729 16.0581 186.788 16.1111 186.852 16.1111H186.916C187.556 15.8141 188.047 15.6656 188.388 15.6656C188.772 15.6656 189.039 15.8141 189.188 16.1111C189.338 16.4081 189.412 16.896 189.412 17.5749V32.3087C189.412 32.9451 189.364 33.4118 189.268 33.7088C189.172 34.0058 189.002 34.2127 188.756 34.3294C188.511 34.446 188.132 34.5044 187.62 34.5044C187.556 34.5044 187.524 34.568 187.524 34.6953C187.524 34.8226 187.556 34.8863 187.62 34.8863C188.196 34.8863 188.644 34.8757 188.964 34.8544L190.853 34.8226L193.381 34.8544C193.829 34.8757 194.448 34.8863 195.237 34.8863C195.301 34.8863 195.333 34.8226 195.333 34.6953C195.333 34.568 195.301 34.5044 195.237 34.5044C194.405 34.5044 193.792 34.446 193.397 34.3294C193.002 34.2127 192.735 34.0058 192.597 33.7088C192.458 33.4118 192.389 32.9451 192.389 32.3087V26.1988ZM192.389 16.2384C193.178 15.5595 194.053 15.2201 195.013 15.2201C196.144 15.2201 197.088 15.6603 197.846 16.5407C198.603 17.4211 198.982 18.6675 198.982 20.2798C198.982 23.9288 197.904 25.7533 195.749 25.7533C195.002 25.7533 194.373 25.6207 193.861 25.3555C193.349 25.0903 192.858 24.6925 192.389 24.1621V16.493V16.2384Z" fill="black"/>
</g>
<g id="Group 2">
<g id="Group Copy">
<g id="Rectangle">
<path fill-rule="evenodd" clip-rule="evenodd" d="M0.5 0C10.6118 0 13.6234 7.21571 13.6234 14.4314C13.6234 21.6471 10.0652 28.8628 0.5 28.8628C0.5 24.7041 0.5 4.12505 0.5 0Z" fill="#A01A7D"/>
<path fill-rule="evenodd" clip-rule="evenodd" d="M0.5 0C10.6118 0 13.6234 7.21571 13.6234 14.4314C13.6234 21.6471 10.0652 28.8628 0.5 28.8628C0.5 24.7041 0.5 4.12505 0.5 0Z" fill="url(#paint0_linear_265_1206)"/>
</g>
<path id="Oval" fill-rule="evenodd" clip-rule="evenodd" d="M14.3912 0C9.86691 8.99054 5.94431 17.1737 0.5 28.761C22.7552 30.6472 30.0564 5.7661 14.3912 0Z" fill="url(#paint1_linear_265_1206)"/>
</g>
</g>
</g>
<defs>
<linearGradient id="paint0_linear_265_1206" x1="0.5" y1="0" x2="0.5" y2="28.8628" gradientUnits="userSpaceOnUse">
<stop stop-color="#A01A7D"/>
<stop offset="1" stop-color="#0D3D39"/>
</linearGradient>
<linearGradient id="paint1_linear_265_1206" x1="4.31876" y1="-9.69199" x2="-16.4235" y2="14.1227" gradientUnits="userSpaceOnUse">
<stop stop-color="#ED093E"/>
<stop offset="0.995629" stop-color="#F896AD"/>
</linearGradient>
</defs>
</svg>
